<!-- assets/icons.svg -->
<svg xmlns="http://www.w3.org/2000/svg" style="display:none">

  <!-- GitHub icon (with fill‐rule & clip‐rule) -->
  <symbol id="icon-github" viewBox="0 0 24 24">
    <path
      fill="currentColor"
      fill-rule="evenodd"
      clip-rule="evenodd"
      d="M12 0C5.37 0 0 5.37 0 12C0 17.31 3.435 21.795 8.205 23.385C8.805 23.49 9.03 23.13 9.03 22.815C9.03 22.53 9.015 21.585 9.015 20.58C6 21.135 5.22 19.845 4.98 19.17C4.845 18.825 4.26 17.76 3.75 17.475C3.33 17.25 2.73 16.695 3.735 16.68C4.68 16.665 5.355 17.55 5.58 17.91C6.66 19.725 8.385 19.215 9.075 18.9C9.18 18.12 9.495 17.595 9.84 17.295C7.17 16.995 4.38 15.96 4.38 11.37C4.38 10.065 4.845 8.985 5.61 8.145C5.49 7.845 5.07 6.615 5.73 4.965C5.73 4.965 6.735 4.65 9.03 6.195C9.99 5.925 11.01 5.79 12.03 5.79C13.05 5.79 14.07 5.925 15.03 6.195C17.325 4.635 18.33 4.965 18.33 4.965C18.99 6.615 18.57 7.845 18.45 8.145C19.215 8.985 19.68 10.05 19.68 11.37C19.68 15.975 16.875 16.995 14.205 17.295C14.64 17.67 15.015 18.39 15.015 19.515C15.015 21.12 15 22.41 15 22.815C15 23.13 15.225 23.505 15.825 23.385C18.2072 22.5807 20.2772 21.0497 21.7437 19.0074C23.2101 16.965 23.9993 14.5143 24 12C24 5.37 18.63 0 12 0Z"
    />
  </symbol>

  <!-- Discord icon -->
  <symbol id="icon-discord" viewBox="0 0 24 24">
    <path
      fill="currentColor"
      d="M20.317 4.492c-1.53-.69-3.17-1.2-4.885-1.49a.075.075 0 0 0-.079.036c-.21.369-.444.85-.608 1.23a18.6 18.6 0 0 0-5.487 0 12 12 0 0 0-.617-1.23A.08.08 0 0 0 8.562 3c-1.714.29-3.354.8-4.885 1.491a.1.1 0 0 0-.032.027C.533 9.093-.32 13.555.099 17.961a.08.08 0 0 0 .031.055 20 20 0 0 0 5.993 2.98.08.08 0 0 0 .084-.026 14 14 0 0 0 1.226-1.963.074.074 0 0 0-.041-.104 13 13 0 0 1-1.872-.878.075.075 0 0 1-.008-.125q.19-.14.372-.287a.08.08 0 0 1 .078-.01c3.927 1.764 8.18 1.764 12.061 0a.08.08 0 0 1 .079.009q.18.148.372.288a.075.075 0 0 1 .02.1.1.1 0 0 1-.026.025q-.895.515-1.873.877a.075.075 0 0 0-.041.105c.36.687.772 1.341 1.225 1.962a.08.08 0 0 0 .084.028 20 20 0 0 0 6.002-2.981.08.08 0 0 0 .032-.054c.5-5.094-.838-9.52-3.549-13.442a.06.06 0 0 0-.031-.028M8.02 15.278c-1.182 0-2.157-1.069-2.157-2.38 0-1.312.956-2.38 2.157-2.38 1.21 0 2.176 1.077 2.157 2.38 0 1.312-.956 2.38-2.157 2.38m7.975 0c-1.183 0-2.157-1.069-2.157-2.38 0-1.312.955-2.38 2.157-2.38 1.21 0 2.176 1.077 2.157 2.38 0 1.312-.946 2.38-2.157 2.38"
    />
  </symbol>

  <!-- Mail icon (replaced) -->
  <symbol id="icon-mail" viewBox="0 0 24 25">
    <path
      fill="currentColor"
      d="M2.57143 0C1.15179 0 0 1.16906 0 2.61V21.75C0 23.1909 1.15179 24.36 2.57143 24.36H21.4286C22.8482 24.36 24 23.1909 24 21.75V2.61C24 1.16906 22.8482 0 21.4286 0H2.57143ZM14.6822 3.48L19.2353 9.70866L18.008 10.6329L13.4551 4.40421L14.6822 3.48ZM11.8517 5.97157L17.7309 10.9343L16.7607 12.1198L10.8817 7.15667L11.8517 5.97157ZM9.59491 9.18628L16.5235 12.4812L15.8901 13.8877L8.9617 10.6128L9.59491 9.18628ZM8.28857 12.7025L15.7711 14.2895L15.4543 15.8169L7.97196 14.2294L8.28857 12.7024V12.7025ZM4.76464 14.6715H6.28929V19.3331H16.9985V14.6714H18.5226V20.88H4.76464V14.6714V14.6715ZM7.81334 16.2188H15.4542V17.7657H7.81339V16.2188H7.81334Z"
    />
  </symbol>

  <!-- Social4 icon -->
  <symbol id="icon-social4" viewBox="0 0 24 25">
    <path
    fill="currentColor"
     d="M9.787 14.967a1.233 1.233 0 1 1 0-2.467 1.233 1.233 0 0 1 0 2.467M24.833 12.5a12.334 12.334 0 1 1-24.668 0 12.334 12.334 0 0 1 24.668 0m-6.583-2.05a1.73 1.73 0 0 0-1.125.508 7.9 7.9 0 0 0-4.27-1.31l.863-3.9 2.76.616a1.22 1.22 0 0 0 1.217 1.234 1.25 1.25 0 0 0 1.234-1.25A1.218 1.218 0 0 0 16.6 5.81l-3.083-.678a.293.293 0 0 0-.34.216l-.956 4.3c-1.519.023-3 .477-4.27 1.311a1.65 1.65 0 1 0-1.927 2.621 4 4 0 0 0 0 .771c0 2.605 2.945 4.733 6.567 4.733s6.568-2.128 6.568-4.733q0-.399-.093-.786a1.65 1.65 0 0 0-.74-3.084zm-3.422 5.78a4.35 4.35 0 0 1-4.625 0 .31.31 0 0 0-.486.099.29.29 0 0 0 .07.334 4.89 4.89 0 0 0 5.488 0 .29.29 0 0 0 0-.432.31.31 0 0 0-.447 0m.385-3.73a1.233 1.233 0 1 0 0 2.467 1.233 1.233 0 0 0 0-2.467" 
    />
  </symbol>

  <!-- Custom1 icon -->
  <symbol id="icon-custom1" viewBox="0 0 24 25">
    <path
      fill="currentColor"
      d="M13.095 19.0739C12.264 17.4374 11.289 15.7844 9.3855 15.7844C9.0225 15.7844 8.6595 15.8444 8.325 15.9974L7.68 14.7029C8.4675 14.0279 9.7395 13.4909 11.376 13.4909C13.9215 13.4909 15.228 14.7179 16.266 16.2809C16.881 14.9459 17.1735 13.1414 17.1735 10.9049C17.1735 5.31886 15.426 2.45086 11.346 2.45086C7.326 2.45086 5.5875 5.31886 5.5875 10.9049C5.5875 16.4609 7.326 19.2989 11.3475 19.2989C11.985 19.2989 12.564 19.2299 13.0965 19.0739H13.095ZM14.0925 21.0239C13.1972 21.2644 12.2745 21.3874 11.3475 21.3899C5.991 21.3899 0.75 17.1179 0.75 10.9049C0.75 4.63336 5.9925 0.359863 11.346 0.359863C16.791 0.359863 21.981 4.60186 21.981 10.9049C21.981 14.4104 20.346 17.2589 17.9685 19.1009C18.7365 20.2514 19.5285 21.0164 20.628 21.0164C21.831 21.0164 22.3155 20.0864 22.3965 19.3589H23.961C24.0525 20.3294 23.568 24.3599 19.194 24.3599C16.5435 24.3599 15.144 22.8239 14.094 21.0239H14.0925Z"
    />
  </symbol>

  <!-- Play icon -->
  <symbol id="icon-play" viewBox="0 0 24 25">
    <path
      fill="currentColor"
      d="M23.4999 6.86645C23.364 6.38168 23.0993 5.9428 22.7339 5.59645C22.3582 5.23945 21.8977 4.98409 21.3959 4.85445C19.5179 4.35945 11.9939 4.35945 11.9939 4.35945C8.85721 4.32376 5.72131 4.48073 2.60388 4.82945C2.10208 4.96866 1.64245 5.22974 1.26588 5.58945C0.895885 5.94545 0.627885 6.38445 0.487885 6.86545C0.151578 8.6772 -0.0118232 10.5168 -0.000115239 12.3595C-0.0121152 14.2005 0.150885 16.0395 0.487885 17.8535C0.624885 18.3325 0.891885 18.7695 1.26288 19.1225C1.63388 19.4755 2.09588 19.7305 2.60388 19.8655C4.50689 20.3595 11.9939 20.3595 11.9939 20.3595C15.1345 20.3952 18.2744 20.2382 21.3959 19.8895C21.8977 19.7598 22.3582 19.5044 22.7339 19.1475C23.0991 18.8012 23.3636 18.3622 23.4989 17.8775C23.844 16.0664 24.0118 14.226 23.9999 12.3825C24.0258 10.5311 23.8583 8.68202 23.4999 6.86545V6.86645ZM9.60188 15.7835V8.93645L15.8619 12.3605L9.60188 15.7835Z"
    />
  </symbol>

</svg>


